<svg width="946" height="261" viewBox="0 0 946 261" fill="none" xmlns="http://www.w3.org/2000/svg">
<path d="M20.3573 224.216C24.2453 224.216 27.0713 221.282 27.0713 217.7C27.0713 214.082 24.2813 211.184 20.3933 211.184C16.5053 211.184 13.6793 214.118 13.6793 217.7C13.6793 221.318 16.4693 224.216 20.3573 224.216ZM20.3933 221.66C18.1613 221.66 16.5773 219.86 16.5773 217.7C16.5773 215.504 18.1253 213.74 20.3573 213.74C22.5893 213.74 24.1733 215.54 24.1733 217.7C24.1733 219.896 22.6253 221.66 20.3933 221.66ZM32.9863 224.18C35.0743 224.18 36.6763 223.208 36.6763 221.066C36.6763 219.266 35.1103 218.618 33.7603 218.168C32.7163 217.808 31.7983 217.556 31.7983 217.016C31.7983 216.602 32.1403 216.314 32.8063 216.314C33.5083 216.314 34.4623 216.656 35.4163 217.214L36.4603 215.324C35.4163 214.622 34.0843 214.208 32.8603 214.208C30.9163 214.208 29.3323 215.306 29.3323 217.268C29.3323 219.176 30.8623 219.806 32.2123 220.202C33.2743 220.526 34.2103 220.724 34.2103 221.318C34.2103 221.786 33.8503 222.074 33.0583 222.074C32.1583 222.074 31.0603 221.678 30.0163 220.922L28.8463 222.722C30.1243 223.73 31.6363 224.18 32.9863 224.18ZM39.1235 224H41.8595V210.86H39.1235V224ZM49.5231 224.216C52.5291 224.216 54.7611 221.966 54.7611 219.194C54.7611 216.386 52.5471 214.172 49.5591 214.172C46.5531 214.172 44.3211 216.422 44.3211 219.194C44.3211 222.002 46.5351 224.216 49.5231 224.216ZM49.5591 221.858C48.0471 221.858 47.0211 220.616 47.0211 219.194C47.0211 217.736 47.9571 216.53 49.5231 216.53C51.0351 216.53 52.0611 217.772 52.0611 219.194C52.0611 220.652 51.1251 221.858 49.5591 221.858Z" fill="#808080"/>
<path d="M895.12 227H897.892V223.148L899.35 221.636L903.256 227H906.586L901.222 219.746L906.352 214.4H903.004L897.892 219.908V214.4H895.12V227ZM909.748 229.934C911.386 229.934 912.178 229.196 912.916 227.234L916.624 217.352H913.78L911.674 223.922L909.478 217.352H906.58L910.36 227.036C910.126 227.522 909.874 227.666 909.406 227.666C909.046 227.666 908.596 227.504 908.236 227.288L907.318 229.268C908.02 229.682 908.758 229.934 909.748 229.934ZM918.651 216.29H921.531V213.86H918.651V216.29ZM918.723 227H921.459V217.352H918.723V227ZM927.323 227.072H929.807L933.605 217.352H930.761L928.583 223.814L926.423 217.352H923.525L927.323 227.072Z" fill="#808080"/>
<path d="M908 199L907.713 187.457L897.86 193.477L908 199ZM34.8712 199.491C35.3205 198.694 35.7737 197.899 36.2307 197.107L34.4982 196.107C34.0379 196.905 33.5814 197.706 33.1288 198.509L34.8712 199.491ZM39.0188 192.381C39.9634 190.815 40.9231 189.259 41.8979 187.713L40.206 186.646C39.2243 188.204 38.2577 189.771 37.3063 191.348L39.0188 192.381ZM44.8671 183.102C45.8717 181.575 46.8911 180.057 47.9251 178.549L46.2757 177.418C45.2344 178.937 44.2078 180.465 43.1962 182.003L44.8671 183.102ZM51.068 174.058C52.1284 172.573 53.2031 171.097 54.2921 169.631L52.6865 168.438C51.5901 169.914 50.508 171.4 49.4403 172.896L51.068 174.058ZM57.6013 165.262C58.7185 163.815 59.8496 162.377 60.9946 160.95L59.4344 159.698C58.2817 161.136 57.143 162.583 56.0183 164.039L57.6013 165.262ZM64.4709 156.695C65.6412 155.289 66.825 153.892 68.0223 152.505L66.5084 151.199C65.3033 152.595 64.1117 154 62.9337 155.416L64.4709 156.695ZM71.6309 148.399C72.8469 147.04 74.076 145.69 75.3179 144.349L73.8508 142.99C72.601 144.339 71.3641 145.698 70.1403 147.066L71.6309 148.399ZM79.0823 140.356C80.3498 139.034 81.6301 137.721 82.9229 136.418L81.5032 135.01C80.2024 136.321 78.9142 137.641 77.6388 138.971L79.0823 140.356ZM86.8364 132.54C88.1377 131.272 89.4511 130.013 90.7763 128.763L89.4041 127.308C88.071 128.565 86.7497 129.832 85.4406 131.108L86.8364 132.54ZM94.7874 125.041C96.1363 123.81 97.4968 122.587 98.8688 121.374L97.5441 119.876C96.1641 121.096 94.7957 122.325 93.4389 123.564L94.7874 125.041ZM103.019 117.762C104.414 116.568 105.821 115.382 107.238 114.206L105.961 112.667C104.536 113.85 103.121 115.042 101.718 116.243L103.019 117.762ZM111.471 110.747C112.889 109.606 114.317 108.475 115.756 107.352L114.525 105.775C113.079 106.904 111.643 108.042 110.218 109.189L111.471 110.747ZM120.103 104.011C121.562 102.906 123.032 101.81 124.512 100.723L123.328 99.1114C121.841 100.204 120.363 101.306 118.896 102.416L120.103 104.011ZM128.983 97.4893C130.471 96.4287 131.97 95.3769 133.477 94.3338L132.34 92.6889C130.824 93.7373 129.318 94.7945 127.822 95.8606L128.983 97.4893ZM137.989 91.2591C139.502 90.2428 141.024 89.2351 142.556 88.2361L141.463 86.561C139.924 87.5648 138.394 88.5775 136.873 89.5988L137.989 91.2591ZM147.178 85.265C148.728 84.2832 150.287 83.3102 151.855 82.3457L150.808 80.6422C149.232 81.6112 147.666 82.5889 146.108 83.5754L147.178 85.265ZM156.582 79.4804C158.14 78.5499 159.706 77.6278 161.28 76.714L160.276 74.9843C158.695 75.9022 157.121 76.8286 155.556 77.7634L156.582 79.4804ZM166.028 73.9977C167.618 73.1006 169.217 72.2118 170.824 71.3314L169.863 69.5774C168.249 70.4617 166.643 71.3544 165.045 72.2556L166.028 73.9977ZM175.669 68.7152C177.291 67.8515 178.922 66.9961 180.56 66.1491L179.642 64.3725C177.996 65.2232 176.359 66.0822 174.729 66.9497L175.669 68.7152ZM185.452 63.656C187.077 62.8401 188.708 62.0323 190.347 61.2325L189.47 59.4351C187.824 60.2382 186.186 61.0494 184.555 61.8688L185.452 63.656ZM195.285 58.8574C196.938 58.0738 198.598 57.2983 200.264 56.5308L199.428 54.7141C197.754 55.4847 196.088 56.2634 194.428 57.0502L195.285 58.8574ZM205.285 54.2525C206.965 53.5012 208.653 52.7579 210.346 52.0227L209.55 50.1881C207.85 50.9262 206.156 51.6724 204.469 52.4267L205.285 54.2525ZM215.369 49.8741C217.047 49.167 218.731 48.4676 220.421 47.776L219.663 45.925C217.967 46.6192 216.276 47.3213 214.592 48.0312L215.369 49.8741ZM225.509 45.7247C227.211 45.0487 228.919 44.3806 230.633 43.7202L229.914 41.854C228.194 42.5167 226.48 43.1874 224.771 43.8659L225.509 45.7247ZM235.792 41.7627C237.513 41.1199 239.239 40.4848 240.97 39.8576L240.289 37.9772C238.551 38.6067 236.819 39.244 235.092 39.8892L235.792 41.7627ZM246.115 38.0224C247.835 37.4182 249.56 36.8216 251.291 36.2327L250.647 34.3393C248.91 34.9304 247.178 35.5291 245.452 36.1354L246.115 38.0224ZM256.498 34.4884C258.239 33.9146 259.984 33.3483 261.735 32.7896L261.127 30.8843C259.37 31.4449 257.618 32.0131 255.872 32.589L256.498 34.4884ZM267.001 31.1364C268.751 30.5958 270.507 30.0627 272.267 29.5371L271.694 27.6207C269.929 28.1481 268.167 28.683 266.411 29.2254L267.001 31.1364ZM277.514 27.9962C279.267 27.4899 281.025 26.9911 282.787 26.4996L282.25 24.5731C280.482 25.0662 278.718 25.5667 276.959 26.0747L277.514 27.9962ZM288.086 25.0472C289.856 24.5704 291.631 24.1011 293.409 23.6391L292.906 21.7033C291.122 22.1668 289.342 22.6377 287.566 23.116L288.086 25.0472ZM298.757 22.2753C300.532 21.8307 302.312 21.3935 304.095 20.9636L303.626 19.0193C301.837 19.4506 300.052 19.8892 298.271 20.3351L298.757 22.2753ZM309.422 19.7034C311.201 19.2905 312.984 18.8848 314.77 18.4864L314.335 16.5344C312.543 16.9341 310.755 17.341 308.97 17.7551L309.422 19.7034ZM320.139 17.3127C321.932 16.9287 323.728 16.5518 325.527 16.1822L325.125 14.2231C323.32 14.5939 321.518 14.9718 319.72 15.357L320.139 17.3127ZM330.935 15.0951C332.731 14.7418 334.53 14.3957 336.332 14.0567L335.962 12.0912C334.155 12.4312 332.35 12.7783 330.549 13.1327L330.935 15.0951ZM341.72 13.0658C343.519 12.7426 345.32 12.4264 347.125 12.1173L346.787 10.146C344.977 10.456 343.17 10.7731 341.366 11.0973L341.72 13.0658ZM352.546 11.2112C354.355 10.9163 356.167 10.6284 357.982 10.3476L357.676 8.37115C355.856 8.65277 354.039 8.94148 352.224 9.23729L352.546 11.2112ZM363.432 9.52647C365.244 9.26091 367.058 9.00237 368.874 8.75086L368.6 6.76976C366.779 7.022 364.959 7.28129 363.142 7.54761L363.432 9.52647ZM374.308 8.02014C376.122 7.78353 377.937 7.55389 379.754 7.33122L379.511 5.34607C377.689 5.56937 375.868 5.79966 374.049 6.03695L374.308 8.02014ZM385.212 6.68412C387.033 6.47538 388.856 6.27362 390.681 6.07883L390.468 4.09013C388.639 4.28547 386.811 4.4878 384.984 4.69713L385.212 6.68412ZM396.16 5.51537C397.983 5.33498 399.808 5.16152 401.634 4.99501L401.453 3.00327C399.621 3.17025 397.791 3.34419 395.963 3.52509L396.16 5.51537ZM407.1 4.51773C408.924 4.36553 410.749 4.22023 412.575 4.08182L412.423 2.08754C410.592 2.22633 408.762 2.37204 406.934 2.52466L407.1 4.51773ZM418.056 3.6873C419.885 3.56269 421.714 3.44498 423.545 3.33417L423.424 1.33782C421.588 1.44894 419.754 1.56697 417.92 1.69193L418.056 3.6873ZM429.039 3.02243C430.87 2.92553 432.701 2.83551 434.533 2.75238L434.442 0.754439C432.605 0.837797 430.769 0.92806 428.934 1.02523L429.039 3.02243ZM440.02 2.52412C441.849 2.45488 443.679 2.39251 445.51 2.33699L445.449 0.337909C443.614 0.393578 441.778 0.456124 439.944 0.525546L440.02 2.52412ZM451.004 2.19101C452.836 2.14921 454.668 2.11427 456.501 2.08619L456.47 0.0864262C454.633 0.114583 452.795 0.149619 450.958 0.191533L451.004 2.19101ZM462 2.02253C463.833 2.00818 465.666 2.00068 467.499 2.00004L467.498 4.30942e-05C465.66 0.000681937 463.822 0.00819921 461.984 0.0225937L462 2.02253ZM472.995 2.01868C474.827 2.03174 476.659 2.05166 478.491 2.07842L478.52 0.0786337C476.683 0.0517969 474.846 0.0318301 473.009 0.018732L472.995 2.01868ZM483.987 2.17927C485.818 2.21974 487.65 2.26706 489.481 2.32123L489.54 0.322104C487.704 0.267783 485.867 0.220334 484.031 0.179756L483.987 2.17927ZM494.974 2.50431C496.804 2.5722 498.635 2.64695 500.464 2.72855L500.554 0.730537C498.719 0.648711 496.883 0.573762 495.048 0.505687L494.974 2.50431ZM505.959 2.99429C507.79 3.08974 509.62 3.19207 511.45 3.30128L511.569 1.30483C509.734 1.19533 507.899 1.09272 506.063 0.997002L505.959 2.99429ZM516.936 3.64953C518.764 3.77249 520.591 3.90233 522.418 4.03904L522.567 2.04463C520.736 1.90753 518.903 1.77734 517.07 1.65404L516.936 3.64953ZM527.893 4.46983C529.717 4.62031 531.54 4.77766 533.362 4.94189L533.542 2.94997C531.715 2.78528 529.887 2.62749 528.058 2.4766L527.893 4.46983ZM538.844 5.45713C540.67 5.63583 542.495 5.82147 544.318 6.01404L544.528 4.0251C542.7 3.83199 540.87 3.64584 539.039 3.46664L538.844 5.45713ZM549.784 6.61254C551.605 6.81897 553.424 7.03234 555.241 7.25265L555.482 5.26718C553.659 5.04626 551.835 4.83229 550.01 4.62527L549.784 6.61254ZM560.688 7.93438C562.503 8.16855 564.315 8.40967 566.125 8.65772L566.397 6.67623C564.581 6.42748 562.764 6.18568 560.945 5.95084L560.688 7.93438ZM571.579 9.42671C573.396 9.69028 575.212 9.96086 577.025 10.2385L577.328 8.26149C575.509 7.98309 573.688 7.71173 571.866 7.44742L571.579 9.42671ZM582.458 11.0923C584.267 11.384 586.074 11.6827 587.879 11.9884L588.213 10.0165C586.403 9.70987 584.591 9.41033 582.777 9.11783L582.458 11.0923ZM593.285 12.9265C595.085 13.2463 596.882 13.573 598.677 13.9068L599.042 11.9406C597.242 11.6058 595.44 11.278 593.635 10.9574L593.285 12.9265ZM604.088 14.9361C605.892 15.2868 607.693 15.6448 609.492 16.0098L609.89 14.0498C608.086 13.6836 606.279 13.3246 604.47 12.9728L604.088 14.9361ZM614.879 17.1264C616.672 17.5058 618.462 17.8922 620.248 18.2859L620.679 16.3327C618.886 15.9379 617.091 15.5502 615.293 15.1697L614.879 17.1264ZM625.599 19.4882C627.38 19.8961 629.157 20.3112 630.932 20.7334L631.395 18.7878C629.615 18.3642 627.832 17.9479 626.046 17.5387L625.599 19.4882ZM636.286 22.0319C638.072 22.473 639.853 22.9213 641.632 23.377L642.128 21.4396C640.344 20.9825 638.557 20.5327 636.766 20.0903L636.286 22.0319ZM646.956 24.7658C648.727 25.2361 650.494 25.7136 652.258 26.1985L652.788 24.27C651.019 23.7836 649.246 23.3046 647.469 22.8328L646.956 24.7658ZM657.537 27.6749C659.292 28.1743 661.044 28.681 662.792 29.1951L663.356 27.2763C661.603 26.7606 659.845 26.2522 658.084 25.7512L657.537 27.6749ZM668.075 30.7748C669.835 31.3099 671.591 31.8525 673.343 32.4026L673.942 30.4945C672.184 29.9425 670.423 29.3981 668.656 28.8612L668.075 30.7748ZM678.584 34.0753C680.327 34.6403 682.065 35.2128 683.799 35.7928L684.433 33.8961C682.694 33.3141 680.95 32.7397 679.201 32.1728L678.584 34.0753ZM688.985 37.5552C690.709 38.1501 692.429 38.7525 694.143 39.3624L694.813 37.4781C693.093 36.8661 691.368 36.2616 689.638 35.6646L688.985 37.5552ZM699.337 41.2386C701.065 41.8722 702.787 42.5135 704.504 43.1624L705.211 41.2916C703.488 40.6403 701.759 39.9967 700.026 39.3609L699.337 41.2386ZM709.639 45.1323C711.346 45.7966 713.047 46.4686 714.742 47.1483L715.486 45.2919C713.785 44.6097 712.078 43.9353 710.365 43.2686L709.639 45.1323ZM719.812 49.2104C721.499 49.9069 723.181 50.6111 724.857 51.323L725.639 49.4822C723.957 48.7676 722.268 48.0608 720.575 47.3617L719.812 49.2104ZM729.932 53.5099C731.617 54.2467 733.297 54.9915 734.97 55.7442L735.79 53.9203C734.111 53.1647 732.425 52.417 730.733 51.6773L729.932 53.5099ZM739.97 58.0261C741.63 58.7947 743.285 59.5712 744.932 60.3556L745.792 58.5498C744.138 57.7622 742.477 56.9827 740.81 56.2111L739.97 58.0261ZM749.855 62.7325C751.5 63.538 753.138 64.3515 754.77 65.173L755.669 63.3867C754.031 62.5618 752.386 61.745 750.735 60.9363L749.855 62.7325ZM759.687 67.6843C761.319 68.5296 762.944 69.3831 764.562 70.2448L765.502 68.4796C763.878 67.6143 762.246 66.7572 760.607 65.9084L759.687 67.6843ZM769.393 72.8542C770.996 73.7322 772.591 74.6184 774.179 75.5128L775.161 73.7701C773.566 72.8719 771.963 71.9819 770.354 71.1001L769.393 72.8542ZM778.92 78.2203C780.513 79.1423 782.097 80.0727 783.673 81.0115L784.696 79.2931C783.113 78.3502 781.522 77.4156 779.922 76.4896L778.92 78.2203ZM788.393 83.8625C789.959 84.8213 791.516 85.7886 793.064 86.7643L794.13 85.0721C792.575 84.0919 791.01 83.1202 789.438 82.1571L788.393 83.8625ZM797.685 89.7166C799.216 90.7091 800.74 91.7101 802.254 92.7196L803.363 91.0553C801.842 90.0411 800.311 89.0354 798.772 88.0382L797.685 89.7166ZM806.788 95.7844C808.307 96.8264 809.818 97.8771 811.319 98.9366L812.472 97.3024C810.964 96.2378 809.446 95.182 807.919 94.1349L806.788 95.7844ZM815.795 102.141C817.278 103.218 818.751 104.303 820.215 105.397L821.413 103.796C819.942 102.696 818.461 101.605 816.971 100.523L815.795 102.141ZM824.577 108.706C826.022 109.818 827.457 110.938 828.882 112.067L830.124 110.5C828.691 109.365 827.249 108.238 825.797 107.121L824.577 108.706ZM833.172 115.517C834.596 116.679 836.009 117.851 837.413 119.031L838.7 117.5C837.289 116.314 835.868 115.136 834.436 113.968L833.172 115.517ZM841.591 122.599C842.973 123.797 844.345 125.004 845.706 126.22L847.038 124.728C845.67 123.506 844.291 122.292 842.901 121.087L841.591 122.599ZM849.756 129.895C851.101 131.134 852.435 132.382 853.757 133.64L855.135 132.19C853.805 130.926 852.464 129.67 851.111 128.424L849.756 129.895ZM857.718 137.465C859.027 138.749 860.324 140.042 861.61 141.345L863.033 139.94C861.74 138.63 860.435 137.329 859.119 136.037L857.718 137.465ZM865.432 145.28C866.694 146.6 867.944 147.93 869.182 149.269L870.651 147.911C869.405 146.564 868.147 145.226 866.878 143.898L865.432 145.28ZM872.863 153.316C874.086 154.683 875.297 156.06 876.495 157.446L878.008 156.138C876.802 154.743 875.584 153.358 874.354 151.983L872.863 153.316ZM880.052 161.632C881.225 163.036 882.385 164.45 883.532 165.873L885.089 164.618C883.935 163.186 882.767 161.763 881.587 160.35L880.052 161.632ZM886.936 170.17C888.058 171.612 889.166 173.063 890.261 174.523L891.861 173.323C890.759 171.853 889.643 170.393 888.515 168.942L886.936 170.17ZM893.514 178.94C894.585 180.422 895.643 181.914 896.687 183.415L898.329 182.272C897.277 180.762 896.213 179.26 895.135 177.768L893.514 178.94ZM899.779 187.946C900.795 189.465 901.799 190.994 902.788 192.533L904.47 191.451C903.474 189.902 902.464 188.363 901.441 186.833L899.779 187.946Z" fill="#54BD82"/>
</svg>
