<svg width="650" height="461" viewBox="0 0 650 461" fill="none" xmlns="http://www.w3.org/2000/svg">
<rect width="650" height="460.752" fill="black" fill-opacity="0" transform="translate(0 0.153275)"/>
<path d="M82.5558 400.577C87.8365 401.031 93.1494 400.962 98.4164 400.372C156.316 393.995 235.161 395.813 299.434 435.443C388.322 490.248 527.626 443.33 589.076 417.805C636.028 398.309 660.408 350.558 645.762 305.737C645.556 305.106 645.342 304.474 645.12 303.839C635.907 277.203 617.722 256.357 595.202 245.307C575.574 235.676 546.916 215.565 534.165 176.921C528.897 160.964 521.671 145.959 512.286 132.869C487.156 97.8153 434.547 45.6767 344.067 46.0015C328.203 46.0785 312.458 48.731 297.453 53.8545C264.397 65.0698 234.543 87.8594 211.777 119.448C197.25 139.605 175.481 158.331 144.315 159.864C101.062 161.996 59.7841 182.038 28.8187 217.707C27.9254 218.733 27.0436 219.765 26.1619 220.807C-28.9724 286.139 9.3222 394.206 82.5558 400.577Z" fill="#F6FCF9"/>
<path opacity="0.5" d="M158.882 408.022C163.05 408.022 166.429 404.659 166.429 400.511C166.429 396.363 163.05 393 158.882 393C154.714 393 151.335 396.363 151.335 400.511C151.335 404.659 154.714 408.022 158.882 408.022Z" fill="#009183"/>
<path d="M241.626 87.7256H240.441V86.5459H239.96V87.7256H238.775V88.2043H239.96V89.3839H240.441V88.2043H241.626V87.7256Z" fill="white"/>
<path opacity="0.5" d="M428.392 321.725C431.766 321.725 434.502 319.003 434.502 315.645C434.502 312.286 431.766 309.564 428.392 309.564C425.018 309.564 422.283 312.286 422.283 315.645C422.283 319.003 425.018 321.725 428.392 321.725Z" fill="#009183"/>
<path opacity="0.5" d="M467.831 382.597C471.604 382.597 474.662 379.554 474.662 375.799C474.662 372.044 471.604 369 467.831 369C464.058 369 461 372.044 461 375.799C461 379.554 464.058 382.597 467.831 382.597Z" fill="#009183"/>
<path d="M249.889 332.513H236.302L238.73 316.095H247.461L249.889 332.513Z" fill="#535461"/>
<g opacity="0.1">
<rect width="10.0832" height="4.58755" fill="black" fill-opacity="0" transform="translate(238.054 318.027)"/>
<path opacity="0.1" d="M238.054 322.614H248.137L247.461 318.027H238.729L238.054 322.614Z" fill="black"/>
</g>
<path d="M366.324 332.513H352.742L355.164 316.095H363.902L366.324 332.513Z" fill="#535461"/>
<g opacity="0.1">
<rect width="10.0889" height="4.58755" fill="black" fill-opacity="0" transform="translate(354.488 318.027)"/>
<path opacity="0.1" d="M354.488 322.614H364.577L363.902 318.027H355.164L354.488 322.614Z" fill="black"/>
</g>
<path d="M294.035 332.513H280.454L282.876 316.095H291.613L294.035 332.513Z" fill="#535461"/>
<g opacity="0.1">
<rect width="10.089" height="4.58755" fill="black" fill-opacity="0" transform="translate(282.2 318.027)"/>
<path opacity="0.1" d="M282.2 322.614H292.289L291.613 318.027H282.875L282.2 322.614Z" fill="black"/>
</g>
<path d="M321.691 332.513H308.109L310.531 316.095H319.263L321.691 332.513Z" fill="#535461"/>
<g opacity="0.1">
<rect width="10.0889" height="4.58755" fill="black" fill-opacity="0" transform="translate(309.855 318.027)"/>
<path opacity="0.1" d="M309.855 322.614H319.944L319.263 318.027H310.531L309.855 322.614Z" fill="black"/>
</g>
<path d="M346.919 180.411H249.889V184.275H346.919V180.411Z" fill="#535461"/>
<path d="M361.915 119.388C361.402 118.825 360.777 118.374 360.079 118.066C359.38 117.758 358.625 117.598 357.861 117.598C357.097 117.598 356.342 117.758 355.644 118.066C354.945 118.374 354.32 118.825 353.807 119.388C350.984 122.386 348.431 126.347 346.203 130.558C339.598 143.232 336.181 157.312 336.246 171.59V320.238H379.19V170.963C379.243 157.08 375.991 143.383 369.702 130.991C366.719 125.201 364.005 121.577 361.915 119.388Z" fill="#E0E0E0"/>
<path d="M238.769 119.388C239.282 118.825 239.907 118.374 240.606 118.066C241.304 117.758 242.059 117.598 242.823 117.598C243.587 117.598 244.342 117.758 245.041 118.066C245.739 118.374 246.364 118.825 246.877 119.388C249.7 122.386 252.254 126.347 254.481 130.558C261.086 143.232 264.503 157.312 264.438 171.59V320.238H221.494V170.963C221.442 157.08 224.693 143.383 230.982 130.991C233.965 125.201 236.679 121.577 238.769 119.388Z" fill="#E0E0E0"/>
<path d="M221.746 174.131L231.938 174.183V186.686H221.746V174.131Z" fill="#535461"/>
<path d="M254.252 174.131L264.444 174.183V186.686H254.252V174.131Z" fill="#535461"/>
<path d="M336.246 174.131L346.432 174.183V186.686H336.246V174.131Z" fill="#535461"/>
<path d="M368.752 174.131L378.938 174.183V186.686H368.752V174.131Z" fill="#535461"/>
<path d="M243.282 369.214H242.909C241.157 369.214 239.476 368.521 238.237 367.287C236.998 366.054 236.302 364.381 236.302 362.637V332.513H249.883V362.637C249.883 364.38 249.188 366.052 247.95 367.285C246.712 368.519 245.033 369.212 243.282 369.214Z" fill="url(#paint0_linear)"/>
<path d="M287.433 369.214H287.061C285.309 369.214 283.628 368.521 282.389 367.287C281.15 366.054 280.454 364.381 280.454 362.637V332.513H294.035V362.637C294.035 364.38 293.34 366.052 292.102 367.285C290.864 368.519 289.185 369.212 287.433 369.214Z" fill="url(#paint1_linear)"/>
<path d="M315.083 369.214H314.7C312.95 369.209 311.274 368.514 310.039 367.281C308.803 366.049 308.109 364.378 308.109 362.637V332.513H321.691V362.637C321.691 364.381 320.995 366.054 319.756 367.287C318.517 368.521 316.836 369.214 315.083 369.214Z" fill="url(#paint2_linear)"/>
<path d="M359.722 369.214H359.361C358.493 369.215 357.632 369.046 356.829 368.716C356.026 368.386 355.296 367.902 354.682 367.292C354.067 366.681 353.579 365.955 353.246 365.157C352.913 364.358 352.742 363.502 352.742 362.637V332.513H366.324V362.637C366.324 364.38 365.629 366.052 364.391 367.285C363.153 368.519 361.473 369.212 359.722 369.214Z" fill="url(#paint3_linear)"/>
<path d="M305.733 2.83578C305.023 1.99566 304.138 1.3202 303.138 0.8568C302.139 0.393398 301.05 0.153275 299.947 0.153275C298.844 0.153275 297.755 0.393398 296.755 0.8568C295.756 1.3202 294.87 1.99566 294.161 2.83578C290.153 7.32646 286.483 13.2646 283.282 19.5732C273.851 38.2882 269.07 59.5334 269.07 81.075V319.634H330.337V80.1176C330.337 59.1858 325.756 38.5162 316.801 20.2229C312.592 11.5436 308.716 6.1468 305.733 2.83578Z" fill="#EEEEEE"/>
<path d="M308.997 29.3354H289.621C286.142 29.3354 283.322 32.142 283.322 35.6041V37.65C283.322 41.1121 286.142 43.9187 289.621 43.9187H308.997C312.475 43.9187 315.295 41.1121 315.295 37.65V35.6041C315.295 32.142 312.475 29.3354 308.997 29.3354Z" fill="#535461"/>
<g opacity="0.1">
<rect width="60.6425" height="2.34222" fill="black" fill-opacity="0" transform="translate(269.402 89.2301)"/>
<path opacity="0.1" d="M330.044 89.2301H269.402V91.5723H330.044V89.2301Z" fill="black"/>
</g>
<path opacity="0.5" d="M438.664 188.196C438.663 192.898 436.863 197.423 433.63 200.851C430.396 204.278 425.972 206.352 421.257 206.649C420.868 206.649 420.473 206.689 420.078 206.689C417.229 206.687 414.418 206.033 411.863 204.778C409.308 203.523 407.078 201.699 405.344 199.449C403.61 197.199 402.42 194.582 401.864 191.801C401.309 189.019 401.404 186.148 402.141 183.409C402.879 180.67 404.239 178.136 406.118 176.004C407.996 173.872 410.342 172.198 412.974 171.112C415.606 170.027 418.454 169.558 421.297 169.742C424.14 169.927 426.903 170.76 429.371 172.177C431.524 173.421 433.406 175.079 434.908 177.055C437.35 180.26 438.67 184.173 438.664 188.196Z" fill="#009183"/>
<path opacity="0.1" d="M415.509 176.462C414.549 176.874 413.622 177.36 412.738 177.915C412.148 178.237 411.641 178.689 411.255 179.237C411.064 179.513 410.959 179.837 410.952 180.172C410.944 180.506 411.036 180.835 411.215 181.118C411.667 181.734 412.537 181.83 413.305 181.87C413.992 182.016 414.705 181.977 415.373 181.758C416.04 181.538 416.636 181.147 417.101 180.622L418.698 179.18C419.271 178.679 419.844 177.989 419.62 177.288C419.491 177.034 419.298 176.817 419.061 176.657C418.823 176.498 418.549 176.401 418.263 176.377C416.886 176.105 415.457 176.355 414.255 177.078" fill="black"/>
<g opacity="0.1">
<rect width="1.95827" height="1.94901" fill="black" fill-opacity="0" transform="translate(407.859 194.522)"/>
<path opacity="0.1" d="M408.839 196.471C409.379 196.471 409.818 196.034 409.818 195.496C409.818 194.958 409.379 194.522 408.839 194.522C408.298 194.522 407.859 194.958 407.859 195.496C407.859 196.034 408.298 196.471 408.839 196.471Z" fill="black"/>
</g>
<g opacity="0.1">
<rect width="9.77945" height="9.69077" fill="black" fill-opacity="0" transform="translate(425.163 172.177)"/>
<path opacity="0.1" d="M434.943 177.055C434.932 177.987 434.653 178.898 434.137 179.677C433.622 180.456 432.893 181.071 432.036 181.449C431.179 181.827 430.231 181.953 429.305 181.81C428.379 181.667 427.514 181.263 426.812 180.645C426.11 180.026 425.602 179.22 425.347 178.323C425.092 177.425 425.102 176.474 425.376 175.581C425.649 174.689 426.174 173.894 426.889 173.29C427.603 172.687 428.477 172.3 429.406 172.177C431.558 173.421 433.44 175.079 434.943 177.055Z" fill="black"/>
</g>
<path opacity="0.5" d="M183.973 290.205C183.972 293.485 182.716 296.642 180.46 299.034C178.204 301.425 175.118 302.871 171.828 303.079C171.559 303.079 171.256 303.079 171.009 303.079C169.021 303.078 167.06 302.623 165.277 301.747C163.494 300.872 161.937 299.6 160.727 298.03C159.517 296.46 158.686 294.634 158.298 292.693C157.911 290.752 157.976 288.749 158.491 286.837C159.005 284.926 159.955 283.158 161.266 281.67C162.576 280.183 164.213 279.015 166.05 278.257C167.887 277.5 169.874 277.173 171.858 277.302C173.842 277.431 175.769 278.012 177.491 279.001C178.993 279.874 180.305 281.037 181.35 282.42C183.057 284.659 183.979 287.394 183.973 290.205Z" fill="#009183"/>
<path opacity="0.1" d="M167.814 282.022C167.144 282.309 166.497 282.648 165.879 283.036C165.469 283.261 165.116 283.577 164.848 283.959C164.72 284.155 164.652 284.384 164.652 284.617C164.652 284.851 164.72 285.08 164.848 285.276C165.039 285.463 165.269 285.606 165.521 285.697C165.773 285.787 166.041 285.823 166.308 285.8C166.787 285.901 167.285 285.873 167.749 285.72C168.214 285.567 168.63 285.293 168.954 284.928L170.07 283.919C170.46 283.572 170.883 283.087 170.712 282.597C170.622 282.419 170.488 282.268 170.322 282.156C170.157 282.044 169.966 281.976 169.767 281.959C168.808 281.771 167.814 281.946 166.978 282.449" fill="black"/>
<defs>
<linearGradient id="paint0_linear" x1="243.098" y1="332.513" x2="243.098" y2="369.214" gradientUnits="userSpaceOnUse">
<stop stop-color="#E0E0E0"/>
<stop offset="0.31" stop-color="#FCCC63"/>
<stop offset="0.77" stop-color="#F55F44"/>
</linearGradient>
<linearGradient id="paint1_linear" x1="287.25" y1="332.513" x2="287.25" y2="369.214" gradientUnits="userSpaceOnUse">
<stop stop-color="#E0E0E0"/>
<stop offset="0.31" stop-color="#FCCC63"/>
<stop offset="0.77" stop-color="#F55F44"/>
</linearGradient>
<linearGradient id="paint2_linear" x1="314.906" y1="332.513" x2="314.906" y2="369.214" gradientUnits="userSpaceOnUse">
<stop stop-color="#E0E0E0"/>
<stop offset="0.31" stop-color="#FCCC63"/>
<stop offset="0.77" stop-color="#F55F44"/>
</linearGradient>
<linearGradient id="paint3_linear" x1="359.539" y1="332.513" x2="359.539" y2="369.214" gradientUnits="userSpaceOnUse">
<stop stop-color="#E0E0E0"/>
<stop offset="0.31" stop-color="#FCCC63"/>
<stop offset="0.77" stop-color="#F55F44"/>
</linearGradient>
</defs>
</svg>
